# xmcd
#
# Track frame offsets: 
#        150
#        12230
#        24805
#        37112
#        51552
#        64227
#        77590
#        89675
#        102037
#        115042
#        126980
#        139537
#        152077
#        164637
#        177107
#        189155
#        202662
#        217735
#        227402
#        238222
#        252397
#        263785
#        280010
#        289355
#
# Disc length: 4002 seconds
#
# Revision: 0
# Processed by: cddbd v1.5.1PL0 Copyright (c) Steve Scherf et al.
# Submitted via: ExactAudioCopy v0.95b3
#
DISCID=4a0fa018
DTITLE=Various Artist - Rhythm And Blues [CD1)
DYEAR=1990
DGENRE=Blues
TTITLE0=Ray Charles - Mess Around (A. Nugetre)
TTITLE1=Joe Turner - Flip Flop  And Fly (Calhoun - Turner)
TTITLE2=Jhonny Otis - High Heel Sneakers (Robt. Higginbotham)
TTITLE3=Dinah Washington - I Don't Hurt Anymore (Robertson - Rollins)
TTITLE4=Wynonie Harris - Good Rockin' Tonight (R. Brown)
TTITLE5=La Vern Baker - Paly It Fair (Campbell)
TTITLE6=Stick McGhee - One Monkey Don't Stop No Show (S. McGhee)
TTITLE7=Louis Jordan - Caldonia (Charrosin)
TTITLE8=Ruth Brown - Teadrops From My Eyes (Toombs)
TTITLE9=Earl Bostic - Flamingo (Grouya - Anderson)
TTITLE10=Clyde Mc Phatter and The Drifters - Watcha Gonna Do? (Nugetre)
TTITLE11=Tommy Ridgley - Jam Up (Ridgley)
TTITLE12=The Robins - Smokey Joe's Cafe (Leiber - Stoller)
TTITLE13=Tiny Grimes - Midnight Special (T. Grimes)
TTITLE14=Willie Jackson - Gator's Groove (W. Jackson)
TTITLE15=Joe Turner - Shake, Rattle And Roll (Calhoun)
TTITLE16=Ray Charles - Drown In My Oun Tears (Glover)
TTITLE17=Ruth Brown - Lucky Lips (Leiber - Stoller)
TTITLE18=The Driffers - Ruby Baby (Leiber - Stoller)
TTITLE19=La Vern Baker - Tweedlee Dee (Scott)
TTITLE20=Louis Jordan - O O O Wee (Biggs - Thomas)
TTITLE21=Tina Turner - Shake Hand (Morris)
TTITLE22=Fats Domino - I'm Walking (A. Domino - Bartholomew)
TTITLE23=Earl Bostic - Blue Moon (Rodgers - Hart)
EXTD=
EXTT0=
EXTT1=
EXTT2=
EXTT3=
EXTT4=
EXTT5=
EXTT6=
EXTT7=
EXTT8=
EXTT9=
EXTT10=
EXTT11=
EXTT12=
EXTT13=
EXTT14=
EXTT15=
EXTT16=
EXTT17=
EXTT18=
EXTT19=
EXTT20=
EXTT21=
EXTT22=
EXTT23=
PLAYORDER=
